<svg aria-hidden="true" style="position: absolute; width: 0; height: 0; overflow: hidden;" version="1.1" xmlns="http://www.w3.org/2000/svg" xmlns:xlink="http://www.w3.org/1999/xlink">
<defs>
<symbol id="icon-burger-close" viewBox="0 0 32 32">
<path stroke-linejoin="miter" stroke-linecap="butt" stroke-miterlimit="4" stroke-width="2" d="M2.52 2l26.96 28M2 29.48l28-26.96"></path>
</symbol>
<symbol id="icon-burger-open" viewBox="0 0 20 14">
<path d="M0 1H20" stroke="#D41443"/>
<path d="M0 7H20" stroke="#D41443"/>
<path d="M0 13H20" stroke="#D41443"/>
</symbol>
<symbol id="icon-strilochka" viewBox="0 0 26 32">
<path stroke-linejoin="round" stroke-linecap="round" stroke-miterlimit="4" stroke-width="6.4" d="M5.171 3.2l14.17 12.8-14.17 12.8"></path>
</symbol>
<symbol id="icon-arrow-right" viewBox="0 0 32 32">
<path d="M19.414 27.414l10-10c0.781-0.781 0.781-2.047 0-2.828l-10-10c-0.781-0.781-2.047-0.781-2.828 0s-0.781 2.047 0 2.828l6.586 6.586h-19.172c-1.105 0-2 0.895-2 2s0.895 2 2 2h19.172l-6.586 6.586c-0.39 0.39-0.586 0.902-0.586 1.414s0.195 1.024 0.586 1.414c0.781 0.781 2.047 0.781 2.828 0z"></path>
</symbol>
<symbol id="icon-facebook" viewBox="0 0 16 32">
<path d="M14.143 15.971h-4.033v14.865h-6.112v-14.865h-2.906v-5.222h2.906v-3.382c0-2.417 1.142-6.204 6.167-6.204l4.527 0.019v5.072h-3.284c-0.538 0-1.297 0.272-1.297 1.425v3.073h4.567l-0.534 5.219z"></path>
</symbol>
<symbol id="icon-github" viewBox="0 0 32 32">
<path d="M16 0c-8.789 0-16 7.211-16 16 0 7.499 5.262 14.312 12.25 16v-5.293c-0.276 0.070-0.593 0.109-0.919 0.109-0.398 0-0.781-0.059-1.143-0.169l0.028 0.007c-0.946-0.278-1.714-0.909-2.285-1.869-0.363-0.613-1.008-1.28-1.68-1.23l-0.165-1.867c1.454-0.125 2.71 0.886 3.456 2.139 0.333 0.558 0.715 0.885 1.205 1.029 0.472 0.141 0.981 0.074 1.573-0.136 0.149-1.186 0.693-1.629 1.104-2.256-4.168-0.621-5.829-2.832-6.488-4.576-0.874-2.318-0.405-5.213 1.139-7.043 0.030-0.035 0.085-0.128 0.064-0.192-0.709-2.141 0.154-3.91 0.186-4.098 0.818 0.24 0.95-0.243 3.552 1.336l0.448 0.27c0.189 0.112 0.128 0.048 0.317 0.032 1.003-0.282 2.157-0.452 3.349-0.469l0.010-0c1.136 0.014 2.272 0.176 3.403 0.483l0.146 0.016c-0.013-0.003 0.040-0.010 0.128-0.062 3.248-1.968 3.131-1.325 4.003-1.608 0.032 0.189 0.882 1.987 0.182 4.099-0.096 0.291 2.816 2.957 1.202 7.235-0.659 1.744-2.32 3.957-6.486 4.578 0.534 0.816 1.176 1.248 1.173 2.928v6.606c6.986-1.688 12.25-8.501 12.25-16 0-8.789-7.211-16-16-16z"></path>
</symbol>
<symbol id="icon-telegram" viewBox="0 0 44 32">
<path d="M17.342 21.048l-0.674 8.86c0.966 0 1.384-0.388 1.886-0.852l4.526-4.040 9.38 6.414c1.72 0.894 2.934 0.422 3.4-1.478l6.156-26.932c0.548-2.374-0.92-3.302-2.594-2.72l-36.194 12.934c-2.47 0.896-2.434 2.18-0.42 2.766l9.252 2.684 21.494-12.552c1.012-0.626 1.932-0.28 1.176 0.346l-17.39 14.57z"></path>
</symbol>
<symbol id="icon-Group-3" viewBox="0 0 139 32">
<path fill="#fff" style="fill: var(--color1, #fff)" d="M85.333 16c0 8.837-7.163 16-16 16s-16-7.163-16-16c0-8.837 7.163-16 16-16s16 7.163 16 16z"></path>
<path fill="#fff" style="fill: var(--color1, #fff)" d="M32 16c0 8.837-7.163 16-16 16s-16-7.163-16-16c0-8.837 7.163-16 16-16s16 7.163 16 16z"></path>
<path fill="#fff" style="fill: var(--color1, #fff)" d="M138.667 16c0 8.837-7.163 16-16 16s-16-7.163-16-16c0-8.837 7.163-16 16-16s16 7.163 16 16z"></path>
</symbol>
<symbol id="icon-home" viewBox="0 0 35 32">
<path d="M34.253 15.613c0.257-0.279 0.414-0.654 0.414-1.064 0-0.475-0.21-0.901-0.543-1.19l-0.002-0.002-14.773-12.925c-0.318-0.269-0.732-0.432-1.184-0.432-0.467 0-0.893 0.174-1.217 0.46l0.002-0.002-14.821 13.589c-0.316 0.288-0.513 0.701-0.513 1.16 0 0.424 0.168 0.809 0.442 1.091l-0-0 0.373 0.387c0.613 0.64 1.611 0.72 2.224 0.171l1.107-0.992v14.523c0 0.893 0.72 1.613 1.613 1.613h5.773c0.891 0 1.613-0.72 1.613-1.613v-10.16h7.373v10.16c-0.013 0.891 0.624 1.613 1.515 1.613h6.123c0.891 0 1.611-0.72 1.611-1.613v-14.32l0.685 0.603c0.376 0.331 1.168 0.064 1.765-0.595l0.421-0.461z"></path>
</symbol>
<symbol id="icon-modal-form-close" viewBox="0 0 18 18">
<path d="M15 4.108L13.892 3 9.5 7.392 5.108 3 4 4.108 8.392 8.5 4 12.892 5.108 14 9.5 9.608 13.892 14 15 12.892 10.608 8.5 15 4.108z"></path>
</symbol>
<symbol id="icon-close" viewBox="0 0 16 16">
<path d="M1.25928 1L14.7408 15" />
<path d="M1 14.7407L15 1.25924" />
</symbol>
<symbol id="icon-food_icon" viewBox="0 0 32 32">
<path d="M23.969 22.094c-1.569 0.894-3.144 1.781-4.725 2.663-0.8 0.444-1.6 0.881-2.4 1.331-0.331 0.188-0.681 0.488-1.069 0.556-0.4 0.069-0.769-0.131-1.131-0.269-0.944-0.369-1.906-0.725-2.85-1.087-0.569-0.219-0.344-0.894-0.050-1.219 0.412-0.456 1.144-0.050 1.575 0.15 0.656 0.306 1.35 0.488 2.037 0.706 1.531 0.494 3.131-1.994 1.694-2.975-0.531-0.356-1.294-0.538-1.894-0.775-1.313-0.519-2.631-1.031-3.931-1.581-0.863-0.363-1.731-0.837-2.669-0.956-0.869-0.106-1.875 0.044-2.713 0.288-0.463 0.131-0.987 0.363-1.356 0.675-0.25 0.212-0.463 0.538-0.563 0.85v7c0 0 0.044 0.4 0.444 0.306 1.181-0.275 2.587-0.194 3.763 0.063 1.106 0.244 2.113 0.844 3.156 1.262 1.156 0.462 2.344 0.831 3.512 1.244 1.931 0.681 3.306-0.962 4.837-1.825 1.869-1.050 3.731-2.113 5.594-3.163 0.313-0.175 0.619-0.35 0.931-0.525 0.481-0.275 0.944-1.281 0.894-1.8-0.144-1.613-2.038-1.519-3.087-0.919z"></path>
<path d="M2.694 20.431h-1.569c-0.412 0-0.75 0.337-0.75 0.75v5.831c0 0.413 0.338 0.75 0.75 0.75h1.569c0.413 0 0.75-0.337 0.75-0.75v-5.831c0-0.413-0.337-0.75-0.75-0.75zM2.313 22.15c-0.313 0-0.563-0.25-0.563-0.563s0.25-0.563 0.563-0.563c0.313 0 0.563 0.25 0.563 0.563 0 0.306-0.256 0.563-0.563 0.563z"></path>
<path d="M5.406 16.387h26.219v1.069h-26.219v-1.069z"></path>
<path d="M7.669 15.813c0.019-0.169 0.050-0.431 0.1-0.706 0.013-0.056 0.019-0.113 0.031-0.175s0.025-0.125 0.044-0.188c0.031-0.131 0.063-0.275 0.094-0.425 0.019-0.075 0.037-0.156 0.056-0.231 0.025-0.081 0.044-0.162 0.069-0.244 0.050-0.169 0.1-0.344 0.15-0.525 0.125-0.363 0.25-0.756 0.419-1.156 0.044-0.1 0.081-0.206 0.125-0.306 0.050-0.1 0.094-0.206 0.144-0.306 0.050-0.106 0.1-0.206 0.144-0.313 0.050-0.106 0.106-0.206 0.162-0.313s0.113-0.213 0.169-0.319c0.056-0.106 0.125-0.206 0.181-0.313 0.063-0.106 0.125-0.206 0.188-0.313 0.069-0.106 0.137-0.206 0.206-0.306s0.137-0.206 0.206-0.306c0.075-0.1 0.15-0.2 0.225-0.3 0.144-0.2 0.306-0.394 0.463-0.581 0.075-0.1 0.162-0.188 0.244-0.281s0.169-0.181 0.25-0.275c0.088-0.088 0.175-0.175 0.256-0.263 0.088-0.088 0.169-0.175 0.262-0.256 0.088-0.081 0.175-0.162 0.262-0.25 0.088-0.081 0.181-0.156 0.269-0.237 0.175-0.156 0.363-0.3 0.537-0.444 0.088-0.075 0.181-0.138 0.269-0.206 0.094-0.069 0.181-0.138 0.269-0.194 0.181-0.125 0.356-0.25 0.531-0.356 0.35-0.225 0.694-0.419 1.012-0.594 0.319-0.169 0.619-0.313 0.887-0.431s0.506-0.213 0.7-0.287c0.394-0.15 0.625-0.206 0.625-0.206s-0.225 0.081-0.6 0.269c-0.375 0.181-0.9 0.469-1.494 0.869-0.294 0.2-0.613 0.425-0.931 0.675-0.162 0.125-0.319 0.263-0.488 0.4-0.081 0.069-0.162 0.144-0.244 0.219s-0.162 0.144-0.244 0.225c-0.156 0.156-0.325 0.313-0.481 0.481-0.075 0.081-0.162 0.162-0.238 0.25s-0.15 0.175-0.231 0.263c-0.081 0.088-0.15 0.175-0.225 0.269s-0.15 0.181-0.219 0.275c-0.069 0.094-0.137 0.188-0.213 0.281-0.069 0.094-0.144 0.188-0.206 0.287-0.131 0.2-0.269 0.387-0.381 0.594-0.063 0.1-0.119 0.2-0.181 0.3-0.056 0.1-0.113 0.206-0.169 0.306s-0.113 0.2-0.162 0.306c-0.050 0.106-0.1 0.206-0.144 0.306-0.050 0.1-0.1 0.2-0.144 0.306-0.044 0.1-0.088 0.206-0.125 0.306-0.044 0.1-0.088 0.2-0.125 0.3s-0.069 0.2-0.106 0.3c-0.037 0.1-0.069 0.2-0.106 0.294-0.031 0.1-0.056 0.194-0.088 0.294-0.125 0.381-0.2 0.756-0.281 1.094-0.031 0.175-0.063 0.338-0.088 0.494-0.012 0.081-0.031 0.156-0.044 0.231s-0.019 0.15-0.031 0.219-0.037 0.275-0.050 0.394c-0.006 0.063-0.012 0.119-0.025 0.175-0.006 0.056-0.006 0.113-0.012 0.162-0.019 0.219-0.031 0.381-0.037 0.494h21.5c0-0.050 0-0.1 0-0.15 0-6.725-5.194-12.206-11.688-12.438v-0.731c0.637-0.063 1.1-0.263 1.1-0.494 0-0.281-0.688-0.512-1.531-0.512s-1.531 0.231-1.531 0.512c0 0.231 0.462 0.431 1.1 0.494v0.7c-6.494 0.231-11.688 5.713-11.688 12.438 0 0.050 0 0.1 0 0.15h1.3zM23.4 5.606c0.094 0.031 0.206 0.081 0.331 0.138s0.269 0.125 0.419 0.206c0.15 0.081 0.313 0.175 0.475 0.281 0.081 0.050 0.169 0.112 0.25 0.169 0.044 0.031 0.081 0.063 0.125 0.094s0.087 0.063 0.125 0.094c0.081 0.069 0.169 0.138 0.256 0.206 0.044 0.037 0.087 0.075 0.125 0.112 0.044 0.037 0.081 0.075 0.125 0.119 0.044 0.037 0.081 0.081 0.125 0.119 0.038 0.044 0.081 0.081 0.119 0.125s0.075 0.088 0.119 0.131c0.038 0.044 0.081 0.088 0.113 0.131 0.075 0.094 0.15 0.181 0.219 0.275 0.038 0.050 0.069 0.094 0.106 0.144 0.031 0.050 0.063 0.094 0.1 0.144 0.031 0.050 0.063 0.094 0.094 0.144s0.056 0.1 0.087 0.15c0.031 0.050 0.063 0.1 0.087 0.15s0.050 0.1 0.081 0.15c0.025 0.050 0.056 0.1 0.075 0.15 0.025 0.050 0.044 0.1 0.069 0.15s0.044 0.1 0.069 0.144c0.019 0.050 0.038 0.1 0.056 0.144 0.081 0.188 0.137 0.375 0.2 0.544 0.025 0.088 0.050 0.169 0.069 0.25 0.012 0.037 0.025 0.075 0.031 0.113s0.019 0.075 0.025 0.113c0.019 0.069 0.031 0.137 0.044 0.2 0.006 0.031 0.012 0.063 0.019 0.088 0.006 0.031 0.012 0.056 0.012 0.081 0.038 0.206 0.056 0.412 0.056 0.412l-0.694-0.012c0 0-0.006-0.106-0.025-0.3 0-0.025-0.006-0.050-0.006-0.075-0.006-0.025-0.006-0.056-0.012-0.081-0.006-0.056-0.012-0.119-0.025-0.188-0.006-0.031-0.006-0.069-0.012-0.1-0.006-0.037-0.012-0.069-0.019-0.106-0.012-0.075-0.025-0.15-0.044-0.231-0.038-0.156-0.075-0.338-0.131-0.512-0.012-0.044-0.025-0.094-0.044-0.137s-0.031-0.094-0.050-0.137c-0.019-0.044-0.031-0.094-0.050-0.144s-0.038-0.094-0.056-0.144c-0.019-0.050-0.038-0.094-0.063-0.144-0.019-0.050-0.044-0.094-0.069-0.144s-0.044-0.094-0.069-0.144c-0.025-0.050-0.050-0.094-0.075-0.144s-0.050-0.094-0.081-0.144c-0.031-0.044-0.056-0.094-0.087-0.144-0.056-0.094-0.119-0.188-0.181-0.281-0.031-0.044-0.063-0.088-0.094-0.138-0.031-0.044-0.069-0.088-0.1-0.131-0.038-0.044-0.069-0.088-0.106-0.131s-0.069-0.088-0.106-0.125c-0.038-0.044-0.075-0.081-0.106-0.125-0.038-0.044-0.075-0.081-0.113-0.119-0.075-0.081-0.15-0.15-0.225-0.225-0.038-0.037-0.075-0.069-0.113-0.106-0.038-0.031-0.075-0.069-0.113-0.1-0.075-0.063-0.15-0.131-0.225-0.188-0.15-0.119-0.3-0.225-0.438-0.319-0.281-0.188-0.525-0.319-0.7-0.406s-0.281-0.125-0.281-0.125 0.125 0.013 0.306 0.081z"></path>
</symbol>
<symbol id="icon-clock_icon" viewBox="0 0 32 32">
<path fill="#55534c" style="fill: var(--color18, #55534c)" d="M16 1.875c-7.8 0-14.125 6.325-14.125 14.125s6.325 14.125 14.125 14.125 14.125-6.325 14.125-14.125-6.325-14.125-14.125-14.125zM16 28.55c-6.925 0-12.55-5.625-12.55-12.55s5.625-12.55 12.55-12.55 12.55 5.625 12.55 12.55-5.625 12.55-12.55 12.55z"></path>
<path fill="#fff" style="fill: var(--color13, #fff)" d="M16 1.875c-7.8 0-14.125 6.325-14.125 14.125s6.325 14.125 14.125 14.125 14.125-6.325 14.125-14.125-6.325-14.125-14.125-14.125z"></path>
<path fill="#62355c" style="fill: var(--color19, #62355c)" d="M16 30.45c-7.975 0-14.45-6.475-14.45-14.45s6.475-14.45 14.45-14.45 14.45 6.475 14.45 14.45-6.475 14.45-14.45 14.45zM16 2.175c-7.625 0-13.825 6.2-13.825 13.825s6.2 13.825 13.825 13.825 13.825-6.2 13.825-13.825-6.2-13.825-13.825-13.825z"></path>
<path fill="#fea5bb" style="fill: var(--color20, #fea5bb)" d="M16 3.8c-6.725 0-12.2 5.475-12.2 12.2s5.475 12.2 12.2 12.2 12.2-5.475 12.2-12.2-5.475-12.2-12.2-12.2z"></path>
<path fill="#62355c" style="fill: var(--color19, #62355c)" d="M16 28.5c-6.9 0-12.5-5.6-12.5-12.5s5.6-12.5 12.5-12.5c6.9 0 12.5 5.6 12.5 12.5s-5.6 12.5-12.5 12.5zM16 4.125c-6.55 0-11.875 5.325-11.875 11.875s5.325 11.875 11.875 11.875c6.55 0 11.875-5.325 11.875-11.875s-5.325-11.875-11.875-11.875z"></path>
<path fill="#62355c" style="fill: var(--color19, #62355c)" d="M21.525 21.375c-0.2 0-0.425-0.075-0.6-0.2l-5.525-4.45c-0.225-0.175-0.35-0.45-0.35-0.725v-10.050c0-0.525 0.425-0.95 0.95-0.95s0.95 0.425 0.95 0.95v9.6l5.175 4.15c0.4 0.325 0.475 0.925 0.15 1.325-0.2 0.225-0.475 0.35-0.75 0.35z"></path>
<path fill="#62355c" style="fill: var(--color19, #62355c)" d="M21.525 21.375c-0.2 0-0.425-0.075-0.6-0.2l-5.525-4.45c-0.225-0.175-0.35-0.45-0.35-0.725v-10.050c0-0.525 0.425-0.95 0.95-0.95s0.95 0.425 0.95 0.95v9.6l5.175 4.15c0.4 0.325 0.475 0.925 0.15 1.325-0.2 0.225-0.475 0.35-0.75 0.35z"></path>
<path fill="#62355c" style="fill: var(--color19, #62355c)" d="M16.975 15.175v-2.1c-0.3-0.1-0.6-0.175-0.925-0.175-0.35 0-0.65 0.075-0.95 0.175v2.525c0 0.275 0.125 0.55 0.35 0.725l2 1.6c0.55-0.325 0.975-0.85 1.175-1.475l-1.65-1.275z"></path>
<path fill="#62355c" style="fill: var(--color19, #62355c)" d="M21.525 21.675c-0.275 0-0.55-0.1-0.775-0.275l-5.525-4.425c-0.3-0.225-0.475-0.6-0.475-0.975v-10.050c0-0.7 0.575-1.25 1.25-1.25s1.25 0.575 1.25 1.25v9.45l5.050 4.050c0.25 0.2 0.425 0.5 0.475 0.85 0.025 0.325-0.050 0.65-0.275 0.925s-0.6 0.45-0.975 0.45zM16 5.325c-0.35 0-0.625 0.275-0.625 0.625v10.050c0 0.2 0.075 0.375 0.225 0.5l5.525 4.425c0.275 0.2 0.675 0.175 0.875-0.1 0.1-0.125 0.15-0.3 0.125-0.475s-0.1-0.325-0.225-0.425l-5.15-4.125c-0.075-0.050-0.125-0.15-0.125-0.25v-9.6c0-0.35-0.275-0.625-0.625-0.625z"></path>
<path fill="#d4b425" style="fill: var(--color21, #d4b425)" d="M17.6 15.675c0 0.884-0.716 1.6-1.6 1.6s-1.6-0.716-1.6-1.6c0-0.884 0.716-1.6 1.6-1.6s1.6 0.716 1.6 1.6z"></path>
<path fill="#fff" style="fill: var(--color13, #fff)" d="M16 17.575c-1.050 0-1.9-0.85-1.9-1.9s0.85-1.9 1.9-1.9 1.9 0.85 1.9 1.9c0 1.050-0.85 1.9-1.9 1.9zM16 14.375c-0.7 0-1.275 0.575-1.275 1.275s0.575 1.275 1.275 1.275 1.275-0.575 1.275-1.275-0.575-1.275-1.275-1.275z"></path>
<path fill="#593055" style="fill: var(--color22, #593055)" opacity="0.2" d="M6.425 19.075c-0.125 0-0.25-0.075-0.3-0.225-0.050-0.175 0.050-0.35 0.2-0.4l8-2.5c0.175-0.050 0.35 0.050 0.4 0.2 0.050 0.175-0.050 0.35-0.2 0.4l-8 2.5c-0.050 0.025-0.075 0.025-0.1 0.025z"></path>
</symbol>
</defs>
</svg>